<?xml version="1.0" encoding="utf-8"?>
<svg viewBox="0 0 500 500" xmlns="http://www.w3.org/2000/svg">
  <path stroke-width="0" d="M 201.718 86.088 C 217.234 84.992 238.66 85.116 258.391 86.088 C 279.378 87.121 305.206 88.791 324.205 92.486 C 340.34 95.625 355.634 99.823 366.252 105.283 C 374.596 109.573 381.89 116.913 384.991 120.366 C 386.605 122.164 386.055 123.129 387.276 124.479 C 388.823 126.189 391.021 125.878 394.132 129.506 C 401.035 137.56 418.95 163.811 427.038 182.523 C 435.029 201.008 440.412 225.716 442.578 241.024 C 444.135 252.026 443.434 257.778 442.578 267.532 C 441.588 278.8 439.581 292.039 436.179 305.009 C 432.491 319.073 428.458 335.096 420.64 348.885 C 412.429 363.366 403.242 375.834 387.276 389.561 C 366.349 407.554 314.77 436.931 299.525 444.406 C 292.993 447.608 292.788 447.353 287.642 448.062 C 280.487 449.048 268.464 448.224 259.305 448.062 C 250.51 447.907 243.372 448.674 233.711 447.148 C 221.972 445.294 209.475 442.652 193.492 436.179 C 171.751 427.375 130.911 405.669 113.967 394.132 C 103.371 386.916 99.744 382.05 93.4 375.393 C 87.107 368.789 80.924 361.878 76.033 354.369 C 71.192 346.938 66.782 337.055 64.15 330.603 C 62.207 325.842 61.226 324.163 60.494 318.72 C 59.388 310.512 59.486 299.693 60.494 283.985 C 62.05 259.717 65.781 206.987 72.377 181.609 C 77.112 163.389 83.784 150.718 90.658 140.475 C 96.109 132.353 101.183 128.503 108.483 122.651 C 116.995 115.826 128.868 107.917 139.561 102.541 C 149.913 97.337 160.965 93.409 171.554 90.658 C 181.678 88.028 189.607 86.943 201.718 86.088 Z M 326.947 357.665 C 328.698 356.813 330.493 355.837 332.313 354.774 C 333.004 353.702 333.633 352.67 334.26 352.084 C 335.094 351.303 335.286 352.166 336.545 350.713 C 340.915 345.666 360.918 318.03 367.623 299.525 C 374.379 280.88 376.369 253.824 376.764 239.196 C 376.884 234.764 376.094 231.038 375.304 227.74 C 370.776 216.177 365.438 203.712 358.026 194.863 C 350.761 186.19 341.093 180.232 331.517 174.753 C 321.903 169.253 312.438 165.098 300.439 161.956 C 286.502 158.307 269.485 156.94 251.993 155.558 C 246.557 155.128 240.192 154.696 233.57 154.325 C 231.391 154.654 229.283 155.051 227.313 155.558 C 214.813 158.771 202.02 161.665 189.835 168.355 C 176.518 175.666 161.585 185.359 150.987 198.976 C 139.283 214.014 128.793 238.343 124.479 256.563 C 120.693 272.549 121.841 286.855 123.565 302.267 C 123.917 305.411 124.629 308.807 125.538 312.31 C 131.082 322.045 138.48 339.144 145.503 346.6 C 151.669 353.146 161.326 354.785 165.739 359.001 C 184.768 366.313 207.451 372.354 225.329 376.007 C 238.429 376.29 250.924 376.436 258.391 375.85 C 270.278 374.918 277.613 371.635 283.985 371.28 C 286.217 371.155 288.015 371.093 289.639 371.218 C 301.128 367.071 316.158 362.915 326.947 357.665 Z" style="stroke-width: 2px; fill: rgb(45, 146, 235); stroke: rgb(43, 62, 128);"/>
</svg>